<svg xmlns="http://www.w3.org/2000/svg" viewBox="0 0 64 64" role="img" aria-labelledby="title desc">
  <title id="title">Nerdy icon</title>
  <desc id="desc">Rounded teal square with a plant sprout and sparkle.</desc>
  <defs>
    <linearGradient id="bg" x1="0%" y1="0%" x2="100%" y2="100%">
      <stop offset="0%" stop-color="#162033" />
      <stop offset="100%" stop-color="#253b57" />
    </linearGradient>
    <linearGradient id="stem" x1="0%" y1="0%" x2="0%" y2="100%">
      <stop offset="0%" stop-color="#8fe388" />
      <stop offset="100%" stop-color="#36b96a" />
    </linearGradient>
    <linearGradient id="leaf" x1="0%" y1="0%" x2="100%" y2="100%">
      <stop offset="0%" stop-color="#baf27f" />
      <stop offset="100%" stop-color="#40d88a" />
    </linearGradient>
  </defs>
  <rect x="4" y="4" width="56" height="56" rx="16" fill="url(#bg)" />
  <circle cx="47" cy="18" r="4" fill="#7ae7d6" opacity="0.9" />
  <path d="M47 11.5v13M40.5 18h13" stroke="#7ae7d6" stroke-width="2.5" stroke-linecap="round" />
  <path d="M32 44V28" stroke="url(#stem)" stroke-width="4.5" stroke-linecap="round" />
  <path d="M31 28C31 20 23 16 16 18c2 8 9 13 15 12Z" fill="url(#leaf)" />
  <path d="M33 28c0-8 8-12 15-10-2 8-9 13-15 12Z" fill="url(#leaf)" />
  <path d="M24 46c3-2 5-3 8-3s5 1 8 3" stroke="#b7743f" stroke-width="2.5" stroke-linecap="round" fill="none" />
</svg>
